PathFileType	4	(X/Y/Z)	ScaleMarkers.trc																																																																																								
DataRate	CameraRate	NumFrames	NumMarkers	Units	OrigDataRate	OrigDataStartFrame	OrigNumFrames																																																																																				
100	100	4	30	mm	100	76 100																																																																																					
Frame#	Time	Thumb_MCP_L			Thumb_PIP_L			Thumb_DIP_L			Thumb_TIP_L			Index_MCP_L			Index_PIP_L			Index_DIP_L			Index_TIP_L			Middle_MCP_L			Middle_PIP_L			Middle_DIP_L			Middle_TIP_L			Ring_MCP_L			Ring_PIP_L			Ring_DIP_L			Ring_TIP_L			Little_MCP_L			Little_PIP_L			Little_DIP_L			Little_TIP_L			Wrist_L			Elbow_L			Point_W1_L			Point_E1_L			Shoulder_L			Point_F1_L			Point_F2_L			Point_F3_L			Point_F4_L			Point_F5_L		
		X1	Y1	Z1	X2	Y2	Z2	X3	Y3	Z3	X4	Y4	Z4	X5	Y5	Z5	X6	Y6	Z6	X7	Y7	Z7	X8	Y8	Z8	X9	Y9	Z9	X10	Y10	Z10	X11	Y11	Z11	X12	Y12	Z12	X13	Y13	Z13	X14	Y14	Z14	X15	Y15	Z15	X16	Y16	Z16	X17	Y17	Z17	X18	Y18	Z18	X19	Y19	Z19	X20	Y20	Z20	X21	Y21	Z21	X22	Y22	Z22	X23	Y23	Z23	X24	Y24	Z24	X25	Y25	Z25	X26	Y26	Z26	X27	Y27	Z27	X28	Y28	Z28	X29	Y29	Z29	X30	Y30	Z30
76	14.49348617	192.4471999	-111.1650272	-164.5659013	198.4700488	-102.8066945	-152.323737	207.5678767	-112.7260834	-148.4723365	216.0233473	-125.013806	-146.8857711	197.9283807	-113.302706	-183.3231421	220.1706277	-120.3432727	-164.4621083	212.0396372	-137.093895	-157.1610298	203.9709959	-152.0231142	-151.1595483	193.7228794	-117.0264834	-184.0879449	221.564309	-131.0901406	-176.9401363	212.2669343	-147.5775844	-163.8741213	200.1579753	-159.7628375	-153.6324048	190.7782643	-121.6350184	-189.854389	220.9834175	-130.7070136	-184.4356274	212.1151812	-146.8212024	-172.3655254	201.0484876	-160.0837273	-162.2841738	188.3456891	-121.917506	-190.094678	210.8397906	-126.1845085	-192.2895674	211.090173	-137.9970209	-186.867214	195.44516	-146.3789864	-180.0866183	157.54707	-102.0322904	-163.6067274	-38.85444221	-127.3294055	-135.5638879	167.4783427	-85.11436498	-159.713829	-35.10504954	-142.1737691	-122.6958129	0	0	0	206.2135461	-103.2630191	-176.7331442	206.8154884	-123.9103055	-197.7626292	191.9250433	-128.7657052	-200.1804588	190.1465271	-133.3956201	-206.0193007	185.0280017	-130.2030066	-207.9928191
77	14.50348617	192.4998796	-111.1344511	-164.5583586	198.4924866	-102.7698748	-152.3087124	207.5783843	-112.7089569	-148.4832036	216.0349008	-124.9963316	-146.8985463	197.9584709	-113.2621231	-183.3225574	220.1959669	-120.355042	-164.4796302	212.0525036	-137.0998969	-157.1810178	203.9760779	-152.0240547	-151.1777587	193.7518833	-116.9853238	-184.0848602	221.6303895	-131.0975499	-177.1742978	212.061039	-147.4842331	-164.1752151	199.9557939	-159.662927	-153.92161	190.799812	-121.5906118	-189.8506062	220.997525	-130.7566877	-184.5641816	212.0814614	-146.8482132	-172.4992482	201.0064953	-160.0915261	-162.4011104	188.3669194	-121.8728765	-190.0884501	210.8589809	-126.1352384	-192.3108843	211.0528462	-137.9512632	-186.8945348	195.4063557	-146.3316227	-180.1154232	157.6011896	-102.0008846	-163.5565091	-38.77971404	-127.4347127	-135.4849125	167.5375237	-85.08546889	-159.6652745	-35.01950305	-142.2690248	-122.608921	0	0	0	206.276992	-103.2203227	-176.7078957	206.8176734	-123.8710926	-197.777837	191.8354162	-128.6604489	-200.21448	190.0728625	-133.3232334	-206.0336014	185.0312061	-130.1352777	-207.9943815
78	14.51348617	192.5524285	-111.1871916	-164.6471832	198.4716616	-102.8007626	-152.3740685	207.5845337	-112.6875338	-148.4723044	216.0449913	-124.9727483	-146.8950873	198.0192284	-113.3260372	-183.4083492	220.2036307	-120.3969098	-164.4843587	212.0997835	-137.1467902	-157.150987	204.0199908	-152.0693843	-151.148399	193.8132169	-117.0498438	-184.1699352	221.6658191	-131.1189349	-177.0725613	212.1123158	-147.5026225	-164.0600459	200.0161838	-159.6979994	-153.8133269	190.8645797	-121.6586689	-189.9340421	221.0849062	-130.7297444	-184.6107381	212.0667857	-146.7773149	-172.5644195	200.9854084	-160.0190813	-162.4686184	188.4318346	-121.941161	-190.1725352	210.9360149	-126.1530371	-192.366608	211.0394208	-137.9500235	-186.9085526	195.3920073	-146.3296393	-180.1305862	157.6530862	-102.0542876	-163.6621061	-38.74813937	-127.3246639	-135.5979684	167.5875553	-85.13613547	-159.7771965	-35.00008568	-142.1694567	-122.7299835	0	0	0	206.3561704	-103.2369274	-176.7377172	206.9301993	-123.9488624	-197.8218924	191.9947163	-128.774994	-200.2698697	190.1804034	-133.4122963	-206.100513	185.1332289	-130.2508969	-208.0633075
79	14.52348617	192.5450868	-111.1889849	-164.7100725	198.44925	-102.8338785	-152.4092832	207.5819153	-112.6867988	-148.466536	216.0479644	-124.969084	-146.8954572	198.0225154	-113.3358281	-183.4674727	220.1737359	-120.4089279	-164.5130625	212.1295184	-137.1656013	-157.1297445	204.0449397	-152.0856811	-151.1271095	193.8169094	-117.0600375	-184.2297509	221.6460884	-131.1401416	-177.0702166	212.1303882	-147.533591	-164.0434715	200.0316538	-159.7233636	-153.7950406	190.8710017	-121.6713418	-189.993524	221.0518654	-130.863852	-184.6603601	211.961666	-146.8774819	-172.6144645	200.8908387	-160.1082838	-162.4974916	188.4383726	-121.9539828	-190.2331866	210.9447327	-126.1827453	-192.374579	211.0585829	-137.9682557	-186.889712	195.4091646	-146.3456892	-180.1138789	157.6449251	-102.0563127	-163.7472232	-38.73401213	-127.3679092	-135.5622426	167.5766393	-85.13609624	-159.8641846	-34.97386934	-142.2085575	-122.6931178	0	0	0	206.3641892	-103.2072526	-176.7660769	206.9492535	-123.9657838	-197.8663524	192.0159267	-128.8013607	-200.3205473	190.1468454	-133.426251	-206.1588181	185.1686648	-130.3051024	-208.1097828
